<svg xmlns="http://www.w3.org/2000/svg" xmlns:xlink="http://www.w3.org/1999/xlink" width="792" height="792" viewBox="0 0 792 792">
  <defs>
    <clipPath id="clip-path">
      <rect id="Ret칙ngulo_1" data-name="Ret칙ngulo 1" width="792" height="792" transform="translate(312 728)" fill="#fff" stroke="#707070" stroke-width="1"/>
    </clipPath>
  </defs>
  <g id="Grupo_de_m치scara_1" data-name="Grupo de m치scara 1" transform="translate(-312 -728)" clip-path="url(#clip-path)">
    <g id="started" transform="translate(312 796.019)">
      <g id="Grupo_1" data-name="Grupo 1" transform="translate(186.85 0)">
        <path id="Caminho_1" data-name="Caminho 1" d="M216.672,318.927c-28.829-5.861-53.856-17.107-70.171-42.451-9.029-13.939-6.494-29.779-5.227-45.144a243.633,243.633,0,0,0,.475-30.413c-.634-10.138-4.594-19.008-9.821-27.72-17.107-28.354-13.939-53.381,8.87-77.3,9.662-10.138,21.7-13.147,35.006-13.939,14.731-.792,29.462-.158,43.877-3.643,17.582-4.118,32.63-13.622,48-22.176,15.682-8.554,31.838-16.157,49.9-16.632,32.789-.95,60.192,12.672,80.784,36.907a335.5,335.5,0,0,0,55.282,51.8c17.9,13.306,31.522,29.779,35.165,52.589,5.544,34.373-3.485,65.261-23.76,92.981-13.464,18.533-31.363,31.522-52.43,40.234-7.445,3.01-15.048,5.7-22.651,8.554-7.286-7.762-14.414-15.365-21.542-23.285-2.693-3.01-2.218-6.97-1.9-10.613,6.019-61.618-10.3-117.533-42.61-169.488a84.656,84.656,0,0,0-12.038-16c-9.187-9.187-17.582-8.712-25.344,1.742-20.909,28.2-36.274,59.083-44.986,93.3-7.92,31.363-9.979,63.043-7.445,95.2.158,2.059,0,4.118,0,6.336C228.552,306.255,222.85,312.274,216.672,318.927Zm214-144.3c-14.89-.158-26.136,10.613-26.294,25.027-.158,14.1,11.088,25.978,24.71,26.136,15.048.158,26.294-10.771,26.453-25.661C455.54,185.4,445.085,174.783,430.671,174.625ZM198.615,263.962c-1.267-9.187-6.494-17.266-15.682-22.493-4.752-2.693-9.979-1.9-12.514,3.168-4.277,8.4-5.7,17.424-1.267,26.453,3.168,6.178,11.4,8.712,19.958,6.653C195.605,276,198.456,271.566,198.615,263.962ZM402.476,142.311c-.475-2.851-2.218-4.594-5.069-4.277-2.534.317-4.118,1.9-3.96,4.594s1.584,4.277,4.277,4.277C400.733,147.063,402,145,402.476,142.311ZM208.911,187.93c1.9,2.534,4.118,3.643,6.97,1.9a4.284,4.284,0,0,0,1.742-4.91c-1.267-3.326-3.8-3.643-6.653-2.693C209.386,183.5,208.594,185.079,208.911,187.93ZM182.775,159.1c2.218-2.693,2.376-5.227-.475-7.128a4.382,4.382,0,0,0-6.178.95c-1.584,2.218-1.109,4.277.792,6.178C178.656,160.052,180.4,160.052,182.775,159.1ZM375.548,126c2.693-2.851,2.851-5.544-.317-7.762a3.893,3.893,0,0,0-5.544.95c-1.742,2.059-1.426,4.118,0,6.019C371.429,126.788,373.172,126.788,375.548,126Zm61.3,134.323c-1.109,2.534-1.267,4.594.792,6.494,2.218,1.109,4.435,1.109,6.336-.95.95-2.059,1.109-3.96-.475-5.861C441.6,258.577,439.383,258.418,436.848,260.319Zm-226.2-143.352c-2.218-3.168-4.435-3.96-6.653-.95a2.921,2.921,0,0,0,.95,4.594C208.277,122.353,210.02,120.769,210.653,116.967Zm187.7,161.885c-2.534,1.426-3.485,3.168-1.9,5.7a3.22,3.22,0,0,0,4.118,1.109,3.515,3.515,0,0,0,2.218-3.8A3.839,3.839,0,0,0,398.357,278.852ZM360.975,87.188c1.584-2.534,1.426-4.752-1.584-6.336-2.376.158-4.594,1.109-4.118,3.96C355.748,88.138,358.124,88.455,360.975,87.188ZM209.7,286.3c1.109,3.01,2.851,3.96,5.7,2.534a3.828,3.828,0,0,0,0-5.544C212.4,281.862,210.495,282.812,209.7,286.3Z" transform="translate(-97.668 -38.946)" fill="#0059ff"/>
        <path id="Caminho_2" data-name="Caminho 2" d="M214.048,337.657c-8.554,5.069-9.5,12.989-10.93,20.75-1.742,9.5-3.643,19.008-5.544,28.354-.475,2.693-1.109,5.386-3.96,7.128-4.277.317-4.752-3.01-5.386-5.861-4.91-23.918-9.5-47.837-14.573-71.6a14.671,14.671,0,0,1,3.643-13.939c7.92-9.029,15.84-17.9,24.394-27.4-.95-14.731-1.9-30.1-1.267-45.619q3.326-80.784,51-146.2c7.128-9.821,12.514-10.138,19.958-.317,20.117,26.928,34.373,56.866,43.56,89.179,7.762,27.086,9.5,54.806,7.92,82.685-.158,2.218.158,4.594-.158,6.97-1.267,8.554,2.218,14.89,8.4,20.592,5.544,5.069,10.138,11.246,15.048,16.949,3.485,4.118,4.435,8.87,3.326,14.256-4.752,22.968-9.346,45.936-14.1,68.9-.634,3.168-.792,7.762-6.653,7.445-9.821-16.632-4.277-38.491-17.582-55.757-6.019,14.731-12.038,27.245-25.027,34.848,2.218,13.939,7.445,27.086,8.712,41.976-20.909,2.376-41.5,2.218-63.518,3.01.158-15.365,6.97-28.829,9.979-43.56C227.037,363.951,219.275,351.913,214.048,337.657Zm58.608,37.382c-.95-3.485.158-5.861,3.01-7.128,17.9-7.762,25.978-23.126,31.046-40.709,13.781-47.678,13.939-95.674,4.594-143.986-2.059-10.3-4.435-20.434-8.554-30.1-27.562,12.355-55.123,12.672-83,4.118-3.8,3.96-4.594,8.87-5.544,13.464-9.029,45.461-10.771,91.238-2.534,137.016,4.435,24.235,11.4,47.837,37.224,60.35-6.336,12.989-8.4,26.928-12.038,41.184,17.582-.95,34.531-1.9,52.114-2.693-3.01-11.88-4.435-23.126-8.4-33.9C277.408,373.455,275.032,374.247,272.656,375.039ZM260.934,80.1c-17.266,17.424-25.5,38.491-35.323,59.083,24.552,8.712,47.362,8.237,70.488-3.485C285.8,116.214,278.992,95.463,260.934,80.1Zm-68.9,303.653c.317.158.792.158,1.109.317,1.9-10.138,3.643-20.275,5.861-30.413.95-4.277,0-9.662,3.643-12.355,9.979-7.445,8.87-16.157,4.752-26.136-1.267-2.851-1.426-6.336-1.9-9.5-1.109-7.128-2.218-14.1-3.485-22.493-8.554,9.346-16.315,17.9-24.552,26.77C182.368,334.647,187.12,359.2,192.03,383.751ZM321.443,281.267a241.322,241.322,0,0,1-8.87,47.837c16,13.622,11.088,34.373,18.216,51.955,5.069-25.661,9.979-50.054,14.731-73.973C337.441,298.215,330.63,289.5,321.443,281.267ZM297.208,139.974c-10.771,7.445-22.81,10.3-35.8,10.93s-25.344-3.01-37.224-6.336c-2.059,2.218-2.534,4.118-2.218,6.019,16,9.979,63.043,8.078,78.725-3.168A18.548,18.548,0,0,0,297.208,139.974Z" transform="translate(-59.245 -12.215)"/>
        <path id="Caminho_3" data-name="Caminho 3" d="M304.651,309.186c-2.693.317-4.118-1.584-5.7-2.534-.317-2.851,1.742-4.752,2.218-7.286.475-2.218,9.5-9.187,13.622-10.613,11.4-3.96,21.226-1.267,28.354,8.712,17.582-9.5,37.541,7.92,38.808,13.939a13.157,13.157,0,0,0,3.485.158c15.048-2.693,26.611,8.712,25.5,26.294-1.426,20.434-9.346,27.878-30.254,28.829-26.928,1.267-53.856,0-80.626,0-22.81,0-45.461,1.426-68.27,2.376a343.473,343.473,0,0,1-51-2.059c-13.622-1.584-23.6-11.4-25.819-25.027-2.534-15.682,1.9-27.562,15.523-35.165,3.643-2.059,7.128-1.109,11.4-.475,13.464-15.523,26.928-8.078,29.462-6.97,11.563-12.2,22.493-14.414,38.966-7.128-.317,3.643-1.584,4.594-3.8,4.435-23.918-2.693-31.363,1.584-41.5,23.918,0,.158-.317.158-1.109.634-1.742-3.326-.95-6.494.475-9.5,1.584-3.01,1.426-6.019,2.059-9.029-12.355-2.693-17.107.792-25.661,18.533-6.019-.634,3.326-9.5,1.109-10.613-3.485.634-8.554-2.851-16.474,7.286-6.97,9.662-7.128,19.642-2.851,29.779,4.118,9.346,11.88,13.306,22.018,13.939,36.115,2.376,72.23-.475,108.187-1.267,28.354-.634,56.549,0,84.9-.158a72.875,72.875,0,0,0,8.237-.95c18.216-2.693,22.334-13.464,17.741-31.363-1.584-6.019-6.019-9.662-12.355-10.613-6.019-.95-9.979,2.376-13.147,7.128-1.109,1.742-1.584,4.435-4.594,4.91-2.693-6.019,2.376-9.662,4.118-14.1-4.118-18.058-22.018-15.523-27.72-16-2.534,4.118,1.426,10.613-5.7,12.514-2.851-4.118-5.7-8.4-8.87-12.514-6.336-8.237-21.226-8.078-28.037,0C304.968,302.058,307.027,306.018,304.651,309.186Z" transform="translate(-73.182 143.451)" fill="#0059ff"/>
        <path id="Caminho_4" data-name="Caminho 4" d="M321.607,96.587c-23.126,0-30.888-24.235-25.978-40.234,1.9-6.019,8.4-6.653,14.1-6.019,14.89,1.742,29.146,18.058,29.621,32.947C339.348,91.2,332.378,96.429,321.607,96.587Z" transform="translate(29.929 -31.08)" fill="#0059ff"/>
        <path id="Caminho_5" data-name="Caminho 5" d="M178.72,72.517c-9.979,0-19.166-4.435-19.642-10.138-.792-9.187,6.494-12.514,12.989-15.84,9.029-4.594,18.533-8.4,28.987-7.128,10.138,1.267,13.306,7.762,8.237,16.632C202.48,67.765,191.233,71.725,178.72,72.517Z" transform="translate(-69.694 -39.165)" fill="#0059ff"/>
        <path id="Caminho_6" data-name="Caminho 6" d="M118.882,120.533c7.762-2.376,12.2.95,15.365,6.178,6.019,9.821,7.286,20.75,5.227,31.838-1.109,6.178-6.811,9.662-13.464,9.029a19.791,19.791,0,0,1-17.741-25.027C110.329,134.472,114.605,127.344,118.882,120.533Z" transform="translate(-107.589 20.215)" fill="#0059ff"/>
        <path id="Caminho_7" data-name="Caminho 7" d="M236.083,315.84c9.979-7.286,19.642-5.7,28.829,1.426,5.7-9.187,22.493-13.464,32.63-5.7,7.128,5.544,9.662,11.722,6.811,18.058-6.178-7.286-9.662-18.058-21.226-17.424-11.4.634-14.1,10.93-19.483,18.691-3.01-2.851.317-5.7-.792-8.237-7.762-9.662-14.731-9.821-28.037.158-9.662-11.88-22.018-13.781-36.274-8.4,3.643-7.286,9.979-8.554,16.632-8.237a29.18,29.18,0,0,1,14.414,4.118C230.856,311.4,234.658,314.414,236.083,315.84Z" transform="translate(-40.571 157.548)" fill="#0059ff"/>
        <path id="Caminho_8" data-name="Caminho 8" d="M222.438,329.928c-2.851-16.79-1.267-28.67-1.426-45.461,0-3.485-1.109-7.286,1.584-10.138,3.326.158,3.326,2.376,3.326,3.96,0,17.266,1.109,29.462,0,46.728-.158,2.218,0,4.91-3.485,4.91Z" transform="translate(-24.234 134.114)" fill="#0059ff"/>
        <path id="Caminho_9" data-name="Caminho 9" d="M234.623,273.509v61.776c-5.069-20.434-2.851-41.184-3.01-61.776Z" transform="translate(-16.46 133.509)" fill="#0059ff"/>
        <path id="Caminho_10" data-name="Caminho 10" d="M211.373,322.8c-8.87-1.426-15.523-7.286-23.6-3.485-7.128,3.326-10.93,9.979-16.315,16.632A23.522,23.522,0,0,1,189.2,314.4,19.883,19.883,0,0,1,211.373,322.8Z" transform="translate(-60.53 163.104)" fill="#0059ff"/>
        <path id="Caminho_11" data-name="Caminho 11" d="M216.273,327.778c-5.069-7.286-4.91-48.629,0-53.539Z" transform="translate(-30.265 134.047)" fill="#0059ff"/>
        <path id="Caminho_12" data-name="Caminho 12" d="M295.669,138.744c-4.594-.317-6.811-3.01-6.653-7.6.158-4.435,2.693-6.653,7.128-6.653,4.91,0,7.445,2.851,7.286,7.286C303.272,136.051,300.579,138.9,295.669,138.744Z" transform="translate(26.088 23.704)" fill="#0059ff"/>
        <path id="Caminho_13" data-name="Caminho 13" d="M309.4,139.789c-.317,3.643-2.218,5.861-6.019,6.178-3.8.158-6.178-1.584-6.336-5.544-.158-4.118,2.218-6.653,6.178-6.811C307.021,133.453,308.922,135.987,309.4,139.789Z" transform="translate(32.002 30.421)" fill="#0059ff"/>
        <path id="Caminho_14" data-name="Caminho 14" d="M311.506,129.767c-1.584,5.069-4.277,4.594-7.445,2.851C304.853,125.965,305.962,125.49,311.506,129.767Z" transform="translate(37.179 25.554)" fill="#0059ff"/>
        <path id="Caminho_15" data-name="Caminho 15" d="M231.795,318.522c-6.019-.634-6.019-5.544-6.97-9.187-3.485-13.622-5.069-27.562-6.494-41.5-2.218-20.117-4.435-40.234-4.91-60.509-.317-13.939,1.742-16.315,15.365-18.533,13.306-2.218,20.592,3.8,19.642,17.107-2.534,34.214-4.752,68.27-11.246,102.01C236.23,311.711,235.913,315.829,231.795,318.522Zm-.95-5.544c4.118-10.454,4.277-19.958,5.227-29.146,2.693-25.344,5.386-50.688,7.6-76.19.95-11.4-3.485-14.89-14.89-13.622-9.187.95-12.2,4.435-11.246,15.206,2.534,26.611,3.8,53.222,7.762,79.517C226.409,296.5,226.885,304.266,230.845,312.978Z" transform="translate(-29.63 70.755)"/>
        <path id="Caminho_16" data-name="Caminho 16" d="M236.765,199.4a28.866,28.866,0,0,1-28.829-28.987c0-15.84,13.147-29.146,28.829-29.146,16.79,0,28.987,11.88,29.146,28.354C266.07,187.046,254.19,199.243,236.765,199.4Zm.158-54.173c-14.414,0-25.186,10.93-25.027,25.344a25.353,25.353,0,0,0,25.661,25.186,24.979,24.979,0,0,0,24.869-25.186A25.351,25.351,0,0,0,236.924,145.229Z" transform="translate(-33.65 36.069)"/>
        <path id="Caminho_17" data-name="Caminho 17" d="M214.139,166.411c-.158-11.088,7.445-18.85,18.533-18.85s18.691,7.6,18.85,18.533c0,11.088-7.6,18.85-18.533,18.85C222.059,185.1,214.3,177.341,214.139,166.411Zm11.722-8.87c-4.91,2.376-6.019,5.7-5.069,9.5.792,3.8,1.584,7.92,7.445,9.187C225.7,169.9,227.286,163.877,225.86,157.541Z" transform="translate(-29.081 40.706)" fill="#0059ff"/>
      </g>
      <g id="Grupo_2" data-name="Grupo 2" transform="translate(76.491 121.264)">
        <path id="Caminho_18" data-name="Caminho 18" d="M678.284,128.309c-1.426-15.682-4.752-18.691-20.117-18.691-39.758-.158-79.517-.158-119.275-.317a70.357,70.357,0,0,1,6.653,20.434,125.492,125.492,0,0,1,1.584,18.533H649.771v329c-192.3-2.851-384.279-.95-578.16,1.742,3.485-111.355,4.435-221.918,3.96-333.432h81.1a109.98,109.98,0,0,1,9.029-17.107c7.762-2.376,12.2.95,15.365,6.178a36.529,36.529,0,0,1,4.594,10.93h12.2c-1.267-8.4-4.752-16-9.187-23.285a73.477,73.477,0,0,1-6.494-13.306c-42.451,0-84.744.158-127.037,2.534-3.643.158-7.128,1.109-11.088,6.653V515.439c211.306.158,422.295-.792,633.759-4.118.475-5.544.95-8.712.95-11.88.317-26.136.792-52.272.792-78.566-.158-68.429-.792-137.016-.634-205.445C678.917,186.283,680.818,157.3,678.284,128.309Z" transform="translate(-44.05 -108.984)"/>
      </g>
      <path id="Caminho_19" data-name="Caminho 19" d="M791.36,466.558c-263.419,1.9-526.839,3.168-790.416,2.059-2.534-6.97.634-10.454,3.01-13.781,21.542-30.73,43.4-61.459,64.944-92.347,5.069-7.286,11.088-10.613,20.434-10.93,56.549-1.584,113.256-1.426,169.8-1.9,80.467-.792,161.093-2.059,241.56-2.376,27.245-.158,54.49.317,81.734-.158,39.125-.634,78.091-.475,117.216-1.109,7.92-.158,13.306,2.376,18.058,9.029,22.81,32.155,46.094,63.994,69.221,95.991C789.618,454.678,793.578,458.322,791.36,466.558ZM555.344,395.12c-71.28.634-143.51-.95-215.424,1.109-2.059,5.069-2.376,8.712-.317,12.514H560.254C559.937,403.515,559.621,399.4,555.344,395.12ZM59.076,441.056H201.953c-.158-7.6,3.326-13.147,1.267-19.8H70.64C66.838,427.75,62.878,434.561,59.076,441.056Zm364.8-1.742c49.262-2.059,97.574-.475,147.47-.792-2.851-7.762-4.752-13.306-6.653-18.533H422.129c0,4.594-.158,8.078,0,11.563C422.446,433.611,423.08,435.67,423.872,439.314ZM210.19,440.581h119.75c.475-7.128.792-13.147,1.267-19.8H213.358C210.19,427.909,210.982,433.928,210.19,440.581ZM573.4,418.4c3.01,7.92,3.485,14.256,6.653,18.85h102.8c-2.851-7.762-5.386-13.939-9.346-18.85ZM266.264,370.251H175.342c-3.643,5.227-3.643,10.613-5.386,16.157h93.614C266.739,380.705,266.581,376.112,266.264,370.251ZM338.653,439H415c.634-7.286.475-13.306-2.376-18.375H338.653Zm-205.6-27.878c34.69.95,68.429-.317,101.851-1.109,2.059-4.752,3.168-8.4,1.742-12.355a8.446,8.446,0,0,0-3.168-1.109c-29.779-1.584-59.4.634-89.179.634C137.168,397.179,133.525,401.931,133.049,411.118Zm554.4-43.4h-83c1.267,6.494,3.168,11.563,7.286,16.157h86.486C695.053,377.379,692.518,372.152,687.45,367.717Zm-177.408,1.109c-.475,6.019,1.9,10.454,3.96,14.89h86.486c-.317-6.178-2.693-10.454-6.178-15.84C566.59,366.449,538.4,368.667,510.041,368.825ZM243.929,409.059h85.378c3.01-4.594,3.01-8.4.634-13.306-27.72.475-55.757-.95-83.635.792C244.088,401.139,242.979,404.782,243.929,409.059Zm254.707-39.442H419.912c.95,5.386,1.742,9.821,2.534,14.89h81.259C503.705,378.329,501.171,374.053,498.637,369.617ZM91.39,387.517c24.235,2.059,47.045-.475,69.7.158,3.01-5.7,5.069-10.3,4.594-16.474H100.419C97.568,376.587,94.875,381.181,91.39,387.517Zm181.843-1.584c22.018.317,44.194,1.426,66.211-1.109,1.267-5.386,1.109-9.5-1.267-14.414-20.909-2.376-42.134.317-62.726-1.109C271.016,374.528,270.541,379.6,273.233,385.933Zm137.65-16H348.632c.792,5.386-2.218,9.662.158,14.573h63.994C414.368,378.8,412.625,374.845,410.883,369.934Zm222.552,26.453h-67.32c.634,7.445,3.8,11.4,10.138,11.4,20.275.158,40.55,0,61.459,0C637.237,402.723,636.445,398.922,633.435,396.387ZM693.31,437.1h41.342A62.39,62.39,0,0,0,721.981,418.4H683.965A62.605,62.605,0,0,0,693.31,437.1Zm19.8-29.938c-2.059-6.178-4.435-10.3-6.97-11.246h-62.41c2.059,4.277,1.267,8.237,5.227,11.246Zm-635.976,3.96c17.582.317,32.63,2.693,48.312-.792,1.109-4.435,2.218-8.4,3.643-13.464-15.206.317-29.146-2.059-43.56-.317C82.837,400.981,80.461,405.257,77.134,411.118Z" transform="translate(-0.009 186.93)"/>
    </g>
  </g>
</svg>
